<?xml version="1.0" encoding="UTF-8" standalone="no"?><!DOCTYPE svg PUBLIC "-//W3C//DTD SVG 1.1//EN" "http://www.w3.org/Graphics/SVG/1.1/DTD/svg11.dtd"><svg width="100%" height="100%" viewBox="0 0 164 87" version="1.1" xmlns="http://www.w3.org/2000/svg" xmlns:xlink="http://www.w3.org/1999/xlink" xml:space="preserve" xmlns:serif="http://www.serif.com/" style="fill-rule:evenodd;clip-rule:evenodd;stroke-linejoin:round;stroke-miterlimit:2;"><g><path d="M63.186,24.327l2.576,-0c0.391,-0 0.821,0.024 1.288,0.074c0.468,0.05 0.934,0.162 1.398,0.337c0.464,0.175 0.89,0.45 1.278,0.827c0.388,0.376 0.698,0.888 0.93,1.535c0.232,0.647 0.348,1.469 0.348,2.466l0,0.594c0,1.083 -0.108,1.984 -0.323,2.704c-0.216,0.72 -0.502,1.296 -0.86,1.728c-0.359,0.433 -0.758,0.756 -1.199,0.971c-0.441,0.214 -0.887,0.356 -1.338,0.426c-0.451,0.069 -0.875,0.104 -1.273,0.104l-0.249,-0l0,5.15l-2.576,-0l-0,-16.916Zm2.705,9.884c0.935,-0 1.58,-0.277 1.935,-0.832c0.355,-0.555 0.532,-1.469 0.532,-2.743l0,-1.526c0,-1.003 -0.167,-1.743 -0.502,-2.218c-0.335,-0.476 -0.99,-0.713 -1.965,-0.713l-0.129,-0l0,8.032l0.129,-0Z" style="fill-rule:nonzero;"/><path d="M72.684,35.657l0,-2.575c0,-1.043 0.09,-1.908 0.269,-2.595c0.179,-0.687 0.416,-1.235 0.711,-1.644c0.295,-0.409 0.62,-0.713 0.975,-0.911c0.355,-0.198 0.708,-0.329 1.059,-0.391c0.352,-0.063 0.674,-0.095 0.965,-0.095c0.604,0 1.161,0.128 1.671,0.382c0.511,0.254 0.921,0.69 1.229,1.307c0.308,0.617 0.462,1.474 0.462,2.57c0,0.548 -0.029,1.108 -0.089,1.679c-0.06,0.571 -0.139,1.075 -0.239,1.51l-4.486,0l0,1.387c0,1.188 0.101,2.027 0.303,2.516c0.203,0.488 0.589,0.732 1.159,0.732c0.312,0 0.594,-0.133 0.846,-0.401c0.252,-0.267 0.378,-0.761 0.378,-1.48l-0,-0.595l2.069,0l-0,0.624c-0,1.294 -0.31,2.237 -0.93,2.828c-0.62,0.591 -1.517,0.886 -2.691,0.886c-1.18,0 -2.086,-0.449 -2.716,-1.347c-0.63,-0.898 -0.945,-2.36 -0.945,-4.387Zm4.994,-2.446c0.013,-0.146 0.023,-0.365 0.03,-0.659c0.006,-0.294 0.01,-0.53 0.01,-0.708c-0,-0.905 -0.096,-1.552 -0.289,-1.941c-0.192,-0.39 -0.497,-0.588 -0.915,-0.595c-0.444,0 -0.772,0.223 -0.985,0.669c-0.212,0.446 -0.318,1.256 -0.318,2.431l0,0.803l2.467,-0Z" style="fill-rule:nonzero;"/><rect x="82.452" y="23.227" width="2.517" height="18.015" style="fill-rule:nonzero;"/><rect x="87.872" y="23.227" width="2.517" height="18.015" style="fill-rule:nonzero;"/><path d="M92.954,35.657l0,-2.575c0,-1.043 0.09,-1.908 0.269,-2.595c0.179,-0.687 0.416,-1.235 0.711,-1.644c0.295,-0.409 0.62,-0.713 0.975,-0.911c0.355,-0.198 0.708,-0.329 1.059,-0.391c0.352,-0.063 0.673,-0.095 0.965,-0.095c0.603,0 1.161,0.128 1.671,0.382c0.511,0.254 0.92,0.69 1.229,1.307c0.308,0.617 0.462,1.474 0.462,2.57c0,0.548 -0.03,1.108 -0.089,1.679c-0.06,0.571 -0.14,1.075 -0.239,1.51l-4.486,0l-0,1.387c-0,1.188 0.101,2.027 0.303,2.516c0.202,0.488 0.589,0.732 1.159,0.732c0.312,0 0.593,-0.133 0.845,-0.401c0.252,-0.267 0.378,-0.761 0.378,-1.48l0,-0.595l2.069,0l0,0.624c0,1.294 -0.31,2.237 -0.93,2.828c-0.62,0.591 -1.517,0.886 -2.69,0.886c-1.181,0 -2.086,-0.449 -2.716,-1.347c-0.63,-0.898 -0.945,-2.36 -0.945,-4.387Zm4.994,-2.446c0.013,-0.146 0.023,-0.365 0.029,-0.659c0.007,-0.294 0.01,-0.53 0.01,-0.708c0,-0.905 -0.096,-1.552 -0.288,-1.941c-0.192,-0.39 -0.497,-0.588 -0.915,-0.595c-0.445,0 -0.773,0.223 -0.985,0.669c-0.212,0.446 -0.318,1.256 -0.318,2.431l-0,0.803l2.467,-0Z" style="fill-rule:nonzero;"/><path d="M63.186,46.698l6.495,0l0,2.021l-3.919,-0l0,5.061l3.074,-0l-0,2.02l-3.074,-0l0,5.794l3.919,-0l0,2.02l-6.495,0l-0,-16.916Zm3.173,-0.673l-1.243,-0.931l2.397,-2.833l1.681,1.258l-2.835,2.506Z" style="fill-rule:nonzero;"/><path d="M71.2,58.028l-0,-2.575c-0,-1.043 0.088,-1.908 0.263,-2.595c0.176,-0.686 0.407,-1.234 0.692,-1.644c0.285,-0.409 0.6,-0.713 0.945,-0.911c0.345,-0.198 0.686,-0.328 1.024,-0.391c0.338,-0.063 0.647,-0.094 0.925,-0.094c0.929,-0 1.681,0.244 2.258,0.733c0.577,0.488 0.866,1.244 0.866,2.268c-0,0.31 -0.015,0.581 -0.045,0.812c-0.03,0.231 -0.071,0.452 -0.124,0.664l-1.91,-0l-0,-0.426c-0,-0.687 -0.095,-1.223 -0.284,-1.61c-0.189,-0.386 -0.469,-0.579 -0.84,-0.579c-0.405,-0 -0.713,0.223 -0.925,0.668c-0.213,0.446 -0.319,1.257 -0.319,2.432l0,3.872c0,1.189 0.095,2.027 0.284,2.516c0.189,0.489 0.529,0.733 1.019,0.733c0.252,-0 0.493,-0.134 0.722,-0.401c0.228,-0.268 0.343,-0.761 0.343,-1.481l-0,-0.594l2.039,-0l0,0.624c0,1.294 -0.279,2.236 -0.836,2.827c-0.557,0.591 -1.405,0.887 -2.546,0.887c-1.154,-0 -2.034,-0.449 -2.641,-1.347c-0.607,-0.898 -0.91,-2.361 -0.91,-4.388Z" style="fill-rule:nonzero;"/><rect x="80.427" y="45.599" width="2.517" height="18.015" style="fill-rule:nonzero;"/><path d="M88.541,56.038c0.252,-0.126 0.524,-0.255 0.816,-0.387c0.291,-0.132 0.56,-0.241 0.805,-0.326l0,-1.654c0,-0.344 -0.015,-0.664 -0.044,-0.961c-0.03,-0.297 -0.12,-0.54 -0.269,-0.728c-0.149,-0.188 -0.403,-0.282 -0.761,-0.282c-0.358,-0 -0.68,0.145 -0.965,0.435c-0.285,0.291 -0.428,0.829 -0.428,1.615l0,0.545l-1.919,-0c-0.12,-0.515 -0.179,-0.964 -0.179,-1.347c-0,-1.017 0.334,-1.791 1.004,-2.323c0.67,-0.531 1.525,-0.797 2.567,-0.797c0.908,-0 1.618,0.127 2.128,0.381c0.511,0.254 0.869,0.637 1.075,1.149c0.205,0.512 0.308,1.16 0.308,1.946l-0,10.31l-1.94,0l-0.179,-1.168c-0.265,0.383 -0.616,0.699 -1.054,0.95c-0.438,0.251 -0.945,0.377 -1.522,0.377c-0.597,-0 -1.088,-0.152 -1.472,-0.456c-0.385,-0.304 -0.672,-0.705 -0.861,-1.203c-0.189,-0.499 -0.283,-1.042 -0.283,-1.629c-0,-1.123 0.268,-2.016 0.806,-2.679c0.537,-0.664 1.326,-1.253 2.367,-1.768Zm0.557,5.823c0.212,0 0.408,-0.054 0.587,-0.163c0.179,-0.109 0.338,-0.243 0.477,-0.401l0,-4.299c-0.126,0.053 -0.262,0.116 -0.407,0.189c-0.146,0.072 -0.315,0.168 -0.508,0.287c-0.351,0.218 -0.68,0.543 -0.985,0.975c-0.305,0.433 -0.457,0.982 -0.457,1.649c-0,0.522 0.103,0.946 0.308,1.273c0.206,0.327 0.534,0.49 0.985,0.49Z" style="fill-rule:nonzero;"/><path d="M96.008,51.878l-1.164,-0l0,-1.902l1.383,0l0.507,-3.535l1.791,-0l-0,3.535l2.287,0l0,1.902l-2.287,-0l-0,8.359c-0,0.594 0.107,0.971 0.323,1.129c0.215,0.159 0.469,0.238 0.761,0.238c0.464,-0 0.862,-0.103 1.193,-0.307l0,1.584c-0.285,0.35 -0.616,0.586 -0.994,0.708c-0.378,0.123 -0.743,0.184 -1.094,0.184c-0.465,-0 -0.904,-0.091 -1.318,-0.273c-0.415,-0.181 -0.75,-0.528 -1.005,-1.04c-0.255,-0.511 -0.383,-1.259 -0.383,-2.243l-0,-8.339Z" style="fill-rule:nonzero;"/></g><ellipse cx="35.436" cy="43.5" rx="2.747" ry="2.735"/><path d="M82.044,0.001l-0.016,-0.001c2.717,-0.02 3.925,2.584 3.917,4.733c-0.009,2.605 -1.085,4.445 -2.578,6.041c3.689,3.195 9.872,5.917 28.462,6.336c11.395,0.258 14.67,-2.168 22.876,-2.711c3.508,-0.233 7.365,0.465 9.843,2.923c1.68,1.667 2.768,4.142 2.655,7.734c-0.148,4.693 0.61,7.265 1.937,10.708c1.032,2.679 2.965,5.146 4.009,6.363c1.609,-1.501 3.464,-2.586 6.096,-2.596c2.158,-0.009 4.773,1.193 4.755,3.896l-0,0.146c0.018,2.704 -2.597,3.905 -4.755,3.896c-2.632,-0.01 -4.487,-1.095 -6.096,-2.595c-1.044,1.216 -2.977,3.683 -4.009,6.363c-1.327,3.442 -2.085,6.014 -1.937,10.707c0.113,3.592 -0.975,6.067 -2.655,7.734c-2.478,2.458 -6.335,3.156 -9.843,2.924c-8.206,-0.544 -11.481,-2.97 -22.876,-2.712c-18.59,0.419 -24.773,3.141 -28.462,6.336c1.493,1.596 2.569,3.436 2.578,6.041c0.008,2.148 -1.198,4.749 -3.911,4.733l0,-0l0,-0l-0.006,-0c0.002,-0 0.006,-0 0.006,-0l-0.068,-0c-0,-0 0.004,-0 0.006,-0l-0.006,-0l-0,-0l-0,-0c-2.713,0.016 -3.919,-2.585 -3.911,-4.733c0.009,-2.605 1.085,-4.445 2.578,-6.041c-3.689,-3.195 -9.872,-5.917 -28.462,-6.336c-11.395,-0.258 -14.67,2.168 -22.876,2.712c-3.508,0.232 -7.365,-0.466 -9.843,-2.924c-1.68,-1.667 -2.768,-4.142 -2.655,-7.734c0.148,-4.693 -0.61,-7.265 -1.937,-10.707c-1.032,-2.68 -2.965,-5.147 -4.009,-6.363c-1.609,1.5 -3.464,2.585 -6.096,2.595c-2.158,0.009 -4.773,-1.192 -4.755,-3.896l0,0.001l0,-0.001l0,-0.145l0,-0.001c-0.018,-2.703 2.597,-3.905 4.755,-3.896c2.632,0.01 4.487,1.095 6.096,2.596c1.044,-1.217 2.977,-3.684 4.009,-6.363c1.327,-3.443 2.085,-6.015 1.937,-10.708c-0.113,-3.592 0.975,-6.067 2.655,-7.734c2.478,-2.458 6.335,-3.156 9.843,-2.923c8.206,0.543 11.481,2.969 22.876,2.711c18.59,-0.419 24.773,-3.141 28.462,-6.336c-1.493,-1.596 -2.569,-3.436 -2.578,-6.041c-0.008,-2.149 1.2,-4.753 3.917,-4.733l0.02,0.001l0.027,-0.001l0.025,0.001Zm-0.044,77.534c-1.17,1.256 -2.041,2.693 -2.048,4.739c-0.005,1.216 0.469,2.848 2.006,2.837l-0.012,0.001l0.027,-0.001c0.011,-0 0.021,0.001 0.031,0.002c0.012,-0.001 0.025,-0.002 0.038,-0.002c1.537,0.011 2.011,-1.621 2.006,-2.837c-0.007,-2.046 -0.878,-3.483 -2.048,-4.739Zm0,-65.441c3.84,3.393 10.211,6.463 29.786,6.905c11.478,0.259 14.779,-2.168 23.045,-2.716c2.975,-0.197 6.277,0.293 8.378,2.377c1.371,1.361 2.19,3.405 2.097,6.337c-0.158,5.015 0.645,7.764 2.062,11.443c1.162,3.016 3.368,5.789 4.469,7.06c-1.101,1.271 -3.307,4.044 -4.469,7.06c-1.417,3.679 -2.22,6.428 -2.062,11.443c0.093,2.932 -0.726,4.976 -2.097,6.337c-2.101,2.084 -5.403,2.574 -8.378,2.377c-8.266,-0.548 -11.567,-2.975 -23.045,-2.716c-19.575,0.442 -25.946,3.512 -29.786,6.905c-3.84,-3.393 -10.211,-6.463 -29.786,-6.905c-11.478,-0.259 -14.779,2.168 -23.045,2.716c-2.975,0.197 -6.277,-0.293 -8.378,-2.377c-1.371,-1.361 -2.19,-3.405 -2.097,-6.337c0.158,-5.015 -0.645,-7.764 -2.062,-11.443c-1.162,-3.016 -3.368,-5.789 -4.469,-7.06c1.101,-1.271 3.307,-4.044 4.469,-7.06c1.417,-3.679 2.22,-6.428 2.062,-11.443c-0.093,-2.932 0.726,-4.976 2.097,-6.337c2.101,-2.084 5.403,-2.574 8.378,-2.377c8.266,0.548 11.567,2.975 23.045,2.716c19.575,-0.442 25.946,-3.512 29.786,-6.905Zm80.103,31.502l-0,-0.023l-0,-0.145c-0,0 -0,-0.012 -0,-0.013c0.012,-1.527 -1.63,-2 -2.851,-1.995c-2.078,0.008 -3.53,0.895 -4.8,2.08c1.27,1.186 2.722,2.072 4.8,2.08c1.221,0.005 2.861,-0.465 2.851,-1.994l0,0.01Zm-152.555,-0.096c-1.27,-1.185 -2.722,-2.072 -4.8,-2.08c-1.221,-0.005 -2.861,0.465 -2.851,1.995l0,0.013l0,0.145l-0,0.023l0,-0.01c-0.01,1.529 1.63,1.999 2.851,1.994c2.078,-0.008 3.53,-0.894 4.8,-2.08Zm72.418,-41.611l-0.008,0c-1.537,-0.011 -2.011,1.621 -2.006,2.838c0.007,2.045 0.878,3.482 2.048,4.738c1.17,-1.256 2.041,-2.693 2.048,-4.738c0.005,-1.217 -0.469,-2.849 -2.006,-2.838l-0.008,0l0,0l0,0l-0.068,0l-0,0l-0,0Z"/><ellipse cx="128.564" cy="43.5" rx="2.747" ry="2.735"/></svg>